<?xml version="1.0" encoding="UTF-8"?>
<svg xmlns="http://www.w3.org/2000/svg" version="1.1" viewBox="0 0 640.13 149.42">
  <!-- Generator: Adobe Illustrator 29.8.2, SVG Export Plug-In . SVG Version: 2.1.1 Build 3)  -->
  <defs>
    <style>
      .st0, .st1 {
        fill: #f3b742;
      }

      .st2, .st3 {
        fill: #f4f0e6;
      }

      .st1 {
        font-family: Libertad-Bold, Libertad;
        font-size: 58.48px;
        font-weight: 700;
        letter-spacing: -.02em;
      }

      .st3 {
        font-family: Libertad, Libertad;
        font-size: 21.66px;
      }
    </style>
  </defs>
  <g id="OBJECTS">
    <g>
      <path class="st0" d="M129.54,85.37v-.06s-15.23-15.23-15.23-15.23c-1.19-1.19-1.19-3.13,0-4.33h0c1.22-1.22,1.22-3.19,0-4.41l-19.23-19.23c-1.22-1.22-3.19-1.22-4.41,0l-2.16,2.16c-.62-.03-3.81-.23-6.24-2.9-.77-.85-1.28-1.75-1.61-2.58-.96-2.37-2.23-4.6-4.04-6.41l-8.23-8.23c-1.22-1.22-3.19-1.22-4.41,0l-12.23,12.23c-1.22,1.22-1.22,3.19,0,4.41l7.09,7.09c2.07,2.07,4.58,3.73,7.43,4.38,1.07.24,2.27.75,3.35,1.76l.09.08c2.54,2.4,2.6,6.38.13,8.85l-1.56,1.56c-1.22,1.22-1.22,3.19,0,4.41l19.23,19.23c1.22,1.22,3.19,1.22,4.41,0l1.18-1.18c1.33-1.33,3.5-1.33,4.83,0h0c3.38,3.38,7.85,5.44,12.61,5.81l5.56.44c10.15.8,15.29,12.07,11.93,20.87h1.66c7.38-8.16,7.33-20.62-.15-28.72Z"/>
      <polygon class="st0" points="63.19 116.39 85.72 93.86 62.98 71.11 17.7 116.39 63.19 116.39"/>
      <polygon class="st2" points="133.79 45.79 204.38 116.39 219.19 116.39 118.37 15.7 96.95 37.04 119.75 59.83 133.79 45.79"/>
      <polygon class="st2" points="169.63 59.93 192.06 82.28 192.06 44.14 169.63 44.14 169.63 59.93"/>
      <polygon class="st2" points="131.02 56.42 123.66 63.78 176.26 116.39 191.07 116.39 131.02 56.42"/>
    </g>
  </g>
  <g id="TEXT">
    <g>
      <text class="st3" transform="translate(234.03 116.3)"><tspan x="0" y="0">ALQUILER DE FORMALETAS</tspan></text>
      <text class="st1" transform="translate(234.03 93.28)"><tspan x="0" y="0">Construfor S.A.S</tspan></text>
    </g>
  </g>
</svg>