<?xml version="1.0" encoding="UTF-8"?>
<svg id="Layer_1" xmlns="http://www.w3.org/2000/svg" version="1.1" viewBox="0 0 1217.92 260.87">
  <!-- Generator: Adobe Illustrator 29.8.2, SVG Export Plug-In . SVG Version: 2.1.1 Build 3)  -->
  <defs>
    <style>
      .st0 {
        fill: #26284d;
      }

      .st1 {
        fill: #f0b91c;
      }
    </style>
  </defs>
  <g>
    <path class="st1" d="M243.12,167.61v-.1s-28.52-28.53-28.52-28.53c-2.24-2.24-2.24-5.86,0-8.1h0c2.28-2.28,2.28-5.98,0-8.26l-36.01-36.01c-2.28-2.28-5.98-2.28-8.26,0l-4.05,4.05c-1.15-.05-7.14-.43-11.68-5.44-1.44-1.59-2.39-3.27-3.02-4.82-1.8-4.44-4.18-8.62-7.56-12.01l-15.41-15.41c-2.28-2.28-5.98-2.28-8.26,0l-22.9,22.9c-2.28,2.28-2.28,5.98,0,8.26l13.28,13.28c3.87,3.87,8.58,6.99,13.92,8.21,2.01.46,4.25,1.41,6.27,3.29l.16.15c4.75,4.49,4.86,11.94.24,16.56l-2.93,2.93c-2.28,2.28-2.28,5.98,0,8.26l36.01,36.01c2.28,2.28,5.98,2.28,8.26,0l2.22-2.22c2.5-2.5,6.55-2.5,9.05,0h0c6.32,6.32,14.7,10.18,23.61,10.88l10.42.82c19.01,1.49,28.63,22.61,22.33,39.09h3.12c13.82-15.28,13.73-38.62-.28-53.79Z"/>
    <polygon class="st0" points="118.87 225.68 161.06 183.5 118.46 140.9 33.68 225.68 118.87 225.68"/>
    <polygon class="st0" points="251.07 93.48 383.27 225.68 411 225.68 222.19 37.14 182.09 77.09 224.78 119.78 251.07 93.48"/>
    <polygon class="st0" points="318.2 119.95 360.19 161.81 360.19 90.4 318.2 90.4 318.2 119.95"/>
    <polygon class="st0" points="245.88 113.38 232.1 127.17 330.62 225.68 358.35 225.68 245.88 113.38"/>
  </g>
  <g>
    <g>
      <path class="st0" d="M463.28,218.15h-11.24l-2.62,7.17h-3.55l10.26-26.8h3.06l10.26,26.8h-3.55l-2.62-7.17ZM453.03,215.43h9.27l-4.63-13.24-4.63,13.24Z"/>
      <path class="st0" d="M488.23,225.33h-14.67v-26.8h3.28v24.08h11.38v2.72Z"/>
      <path class="st0" d="M490.94,211.99c0-8.66,4.59-13.86,12.23-13.86s11.99,5.16,11.99,13.74c0,5.18-1.63,9.11-4.59,11.44l5.72,5.64-2.3,2.2-5.92-6.37c-1.51.6-3.22.95-5.14.95-7.5,0-11.99-5.16-11.99-13.74ZM511.69,212.15c0-7.03-3.28-11.24-8.78-11.24s-8.5,4.05-8.5,10.8,3.28,11.24,8.78,11.24,8.5-4.05,8.5-10.8Z"/>
      <path class="st0" d="M523.36,214.73c0,5.32,2.46,8.14,6.63,8.14s6.45-2.8,6.45-7.7v-16.64h3.28v16.36c0,6.77-3.73,10.84-9.97,10.84s-9.67-3.95-9.67-10.72v-16.48h3.28v16.2Z"/>
      <path class="st0" d="M546.06,198.53h3.28v26.8h-3.28v-26.8Z"/>
      <path class="st0" d="M571.06,225.33h-14.67v-26.8h3.28v24.08h11.38v2.72Z"/>
      <path class="st0" d="M589.92,201.25h-11.79v9.23h11.38v2.72h-11.38v9.41h12.19v2.72h-15.47v-26.8h15.07v2.72Z"/>
      <path class="st0" d="M596.18,225.33v-26.8h8.14c5.64,0,9.07,2.9,9.07,7.74,0,3.14-2.46,6.37-5.7,7.47l6.13,11.58h-3.53l-5.64-10.98h-5.18v10.98h-3.28ZM599.46,211.73h6.67c2.28-.68,3.79-2.78,3.79-5.18,0-3.4-2.08-5.4-5.76-5.4h-4.7v10.58Z"/>
      <path class="st0" d="M627.59,225.33v-26.8h7.86c8.32,0,12.71,5.48,12.71,13.34s-4.82,13.46-13.16,13.46h-7.41ZM635.45,222.71c5.24,0,9.25-3.69,9.25-10.56s-3.51-11-9.69-11h-4.17v21.56h4.62Z"/>
      <path class="st0" d="M668.34,201.25h-11.79v9.23h11.38v2.72h-11.38v9.41h12.19v2.72h-15.47v-26.8h15.07v2.72Z"/>
      <path class="st0" d="M698.52,201.25h-11.38v9.23h10.58v2.72h-10.58v12.13h-3.28v-26.8h14.67v2.72Z"/>
      <path class="st0" d="M702.04,211.99c0-8.66,4.59-13.86,12.23-13.86s11.99,5.16,11.99,13.74-4.59,13.86-12.23,13.86-11.99-5.16-11.99-13.74ZM722.79,212.15c0-7.03-3.28-11.24-8.78-11.24s-8.5,4.05-8.5,10.8,3.28,11.24,8.78,11.24,8.5-4.05,8.5-10.8Z"/>
      <path class="st0" d="M731.68,225.33v-26.8h8.14c5.64,0,9.07,2.9,9.07,7.74,0,3.14-2.46,6.37-5.7,7.47l6.13,11.58h-3.53l-5.64-10.98h-5.18v10.98h-3.28ZM734.97,211.73h6.67c2.28-.68,3.79-2.78,3.79-5.18,0-3.4-2.08-5.4-5.76-5.4h-4.7v10.58Z"/>
      <path class="st0" d="M754.64,198.53h4.98l8.22,19.38,8.22-19.38h4.98v26.8h-3.18v-23.51l-8.52,20.11h-2.98l-8.52-20.11v23.51h-3.18v-26.8Z"/>
      <path class="st0" d="M802.55,218.15h-11.24l-2.62,7.17h-3.55l10.26-26.8h3.06l10.26,26.8h-3.55l-2.62-7.17ZM792.3,215.43h9.27l-4.63-13.24-4.63,13.24Z"/>
      <path class="st0" d="M827.5,225.33h-14.67v-26.8h3.28v24.08h11.38v2.72Z"/>
      <path class="st0" d="M846.37,201.25h-11.79v9.23h11.38v2.72h-11.38v9.41h12.19v2.72h-15.47v-26.8h15.07v2.72Z"/>
      <path class="st0" d="M849.7,198.53h18.84v2.72h-7.78v24.08h-3.28v-24.08h-7.78v-2.72Z"/>
      <path class="st0" d="M885.13,218.15h-11.24l-2.62,7.17h-3.55l10.26-26.8h3.06l10.25,26.8h-3.55l-2.62-7.17ZM874.88,215.43h9.27l-4.63-13.24-4.63,13.24Z"/>
      <path class="st0" d="M894.47,221.24c1.51.79,3.83,1.63,6.55,1.63,3.65,0,5.96-1.51,5.96-4.11,0-2.3-1.33-3.59-4.94-5.08l-2.86-1.21c-3.38-1.43-5.38-3.49-5.38-7.09,0-4.51,4.15-7.25,8.73-7.25,2.82,0,5.12.77,6.67,1.49l-.77,2.6c-1.45-.6-3.79-1.23-5.94-1.23-3.26,0-5.34,1.73-5.36,4.15,0,2.36,1.15,3.51,4.29,4.82l3,1.31c3.89,1.73,5.92,3.91,5.92,7.27,0,4.55-3.51,7.19-9.33,7.19-3.2,0-6-.95-7.41-1.89l.87-2.6Z"/>
    </g>
    <g>
      <path class="st1" d="M486,108.09c6.31,0,13.32,1.74,17.4,4.02l-3.15,10.93c-4.35-1.74-8.92-2.77-13.92-2.77-13.54,0-21.75,8.92-21.75,24.41s8.16,25.72,21.7,25.72c5.22,0,10.77-1.14,15.17-3.15l3.53,10.77c-4.62,2.66-11.96,4.57-18.7,4.57-23.33,0-37.19-14.19-37.19-37.03s14.3-37.46,36.92-37.46Z"/>
      <path class="st1" d="M506.59,154.14c0-17.62,10.49-29.42,27.73-29.42s27.02,11.53,27.02,28.44-10.5,29.42-27.68,29.42-27.08-11.53-27.08-28.44ZM546.39,154.03c0-11.26-4.02-18.49-12.67-18.49s-12.13,7.23-12.13,17.73c0,11.2,3.97,18.49,12.67,18.49,8.16,0,12.13-7.23,12.13-17.73Z"/>
      <path class="st1" d="M580.79,125.81l1.47,5.98c3.64-3.26,9.73-7.07,17.13-7.07,12.29,0,18.7,6.47,18.7,20.12v36.65h-14.46v-34.42c0-7.01-2.66-10.33-8.65-10.33-3.54,0-8.59,1.96-11.37,4.46v40.29h-14.46v-55.68h11.64Z"/>
      <path class="st1" d="M628.57,167.68c3.32,1.58,9.41,3.59,15.01,3.59,5.11,0,8.48-1.2,8.48-4.57s-3.59-5-8.81-6.96l-4.08-1.52c-8.97-3.26-13.27-8.37-13.27-16.15,0-10.77,8.65-17.35,20.66-17.35,5.98,0,12.56,1.2,17.51,3.7l-2.5,10.77c-3.53-1.31-9.19-3.15-14.3-3.15-3.97,0-7.78,1.36-7.78,5,0,3.1,2.34,4.79,8.59,7.18l4.46,1.74c8.75,3.32,13.16,8.21,13.16,16.31,0,9.95-6.96,16.31-21.04,16.31-8.54,0-14.95-2.01-19.14-4.19l3.05-10.71Z"/>
      <path class="st1" d="M689.3,125.81h15.12v10.82h-14.79v25.72c0,6.25,2.12,8.48,7.34,8.48,2.77,0,6.04-.65,7.72-1.25l1.85,10.66c-2.94,1.2-8.43,2.34-12.94,2.34-12.94,0-18.43-5.6-18.43-18.54v-27.4h-8.16v-9.79l9.08-.54,1.09-12.83,12.13-1.03v13.38Z"/>
      <path class="st1" d="M723.86,125.81l1.9,7.23c3.59-4.19,11.2-8.54,18.32-8.21v13.32c-6.14-.22-13.49,2.23-17.24,4.78v38.55h-14.46v-55.68h11.47Z"/>
      <path class="st1" d="M785.46,181.49l-1.47-5.98c-3.48,3.37-9.57,7.07-16.75,7.07-12.07,0-18.33-6.47-18.33-20.12v-36.65h14.41v34.42c0,7.07,2.55,10.33,8.32,10.33,3.37,0,8.1-1.96,10.98-4.46v-40.29h14.41v55.68h-11.58Z"/>
      <path class="st1" d="M824.65,125.81h13.32v10.82h-13.05v44.86h-14.41v-44.86h-8.16v-9.79l8.37-.54v-5.6c0-11.8,7.39-19.68,20.5-19.68,5.6,0,9.3,1.2,11.8,2.07l-2.34,10.55c-1.52-.49-4.35-1.2-7.45-1.2-5.71,0-8.59,2.77-8.59,9.14v4.24Z"/>
      <path class="st1" d="M838.5,154.14c0-17.62,10.49-29.42,27.73-29.42s27.02,11.53,27.02,28.44-10.5,29.42-27.68,29.42-27.08-11.53-27.08-28.44ZM878.3,154.03c0-11.26-4.02-18.49-12.67-18.49s-12.13,7.23-12.13,17.73c0,11.2,3.97,18.49,12.67,18.49,8.16,0,12.13-7.23,12.13-17.73Z"/>
      <path class="st1" d="M912.54,125.81l1.9,7.23c3.59-4.19,11.2-8.54,18.32-8.21v13.32c-6.14-.22-13.49,2.23-17.24,4.78v38.55h-14.46v-55.68h11.47Z"/>
      <path class="st1" d="M955.96,165.62c3.15,1.69,10.77,4.46,17.89,4.46,8.05,0,12.29-2.45,12.29-7.07,0-4.35-2.45-6.69-9.24-9.79l-8.75-3.81c-9.35-4.13-15.01-9.9-15.01-20.28,0-12.78,11.42-21.04,25.45-21.04,10.28,0,16.8,3.21,20.39,5.06l-2.83,11.58c-3.86-1.79-10.6-4.08-16.69-4.08-7.61,0-11.2,3.48-11.26,7.78-.11,4.62,2.56,6.74,7.83,9.03l9.62,4.4c10.82,4.95,15.71,10.87,15.71,20.39,0,13-10.06,20.34-27.24,20.34-8.86,0-17.73-2.66-21.48-5.33l3.32-11.64Z"/>
      <path class="st1" d="M1016.52,165.94c4.57,0,7.99,3.05,7.99,7.88,0,5.71-3.59,8.75-8.75,8.75-4.62,0-7.99-3.05-7.99-7.94,0-5.65,3.59-8.7,8.75-8.7Z"/>
      <path class="st1" d="M1077.51,164.75h-26.59l-5.93,16.75h-15.5l28-72.32h13.38l28.06,72.32h-15.5l-5.93-16.75ZM1054.84,153.6h18.7l-7.99-23-1.52-3.37-9.19,26.37Z"/>
      <path class="st1" d="M1112.68,165.94c4.57,0,7.99,3.05,7.99,7.88,0,5.71-3.59,8.75-8.75,8.75-4.62,0-7.99-3.05-7.99-7.94,0-5.65,3.59-8.7,8.75-8.7Z"/>
      <path class="st1" d="M1130.94,165.62c3.15,1.69,10.77,4.46,17.89,4.46,8.05,0,12.29-2.45,12.29-7.07,0-4.35-2.45-6.69-9.24-9.79l-8.75-3.81c-9.35-4.13-15.01-9.9-15.01-20.28,0-12.78,11.42-21.04,25.45-21.04,10.28,0,16.8,3.21,20.39,5.06l-2.83,11.58c-3.86-1.79-10.6-4.08-16.69-4.08-7.61,0-11.2,3.48-11.26,7.78-.11,4.62,2.56,6.74,7.83,9.03l9.62,4.4c10.82,4.95,15.71,10.87,15.71,20.39,0,13-10.06,20.34-27.24,20.34-8.86,0-17.73-2.66-21.48-5.33l3.32-11.64Z"/>
    </g>
  </g>
</svg>